M48
; DRILL file {KiCad (6.0.4)} date Sat Apr 30 14:31:00 2022
; FORMAT={-:-/ absolute / inch / decimal}
; #@! TF.CreationDate,2022-04-30T14:31:00+02:00
; #@! TF.GenerationSoftware,Kicad,Pcbnew,(6.0.4)
; #@! TF.FileFunction,Plated,1,2,PTH
FMAT,2
INCH
; #@! TA.AperFunction,Plated,PTH,ViaDrill
T1C0.0157
; #@! TA.AperFunction,Plated,PTH,ComponentDrill
T2C0.0295
; #@! TA.AperFunction,Plated,PTH,ComponentDrill
T3C0.0315
; #@! TA.AperFunction,Plated,PTH,ComponentDrill
T4C0.0394
%
G90
G05
T1
X2.75Y-3.85
X2.75Y-3.95
X2.9071Y-4.2471
X3.05Y-2.55
X3.25Y-3.85
X3.3Y-3.2
X3.4Y-3.85
X3.45Y-4.25
X4.0Y-4.5
T2
X3.875Y-3.625
X3.925Y-3.675
X3.975Y-3.625
T3
X2.1498Y-2.6998
X2.1498Y-3.2998
X2.1504Y-4.2002
X2.1504Y-4.3002
X2.1504Y-4.4002
X2.1504Y-4.5002
X2.1504Y-4.6002
X2.1504Y-4.7002
X2.1504Y-4.8002
X2.1504Y-4.9002
X2.1504Y-5.0002
X2.1504Y-5.1002
X2.2498Y-2.6998
X2.2498Y-3.2998
X2.3498Y-2.6998
X2.3498Y-3.2998
X2.4498Y-2.6998
X2.4498Y-3.2998
X2.4504Y-4.2002
X2.4504Y-4.3002
X2.4504Y-4.4002
X2.4504Y-4.5002
X2.4504Y-4.6002
X2.4504Y-4.7002
X2.4504Y-4.8002
X2.4504Y-4.9002
X2.4504Y-5.0002
X2.4504Y-5.1002
X2.5498Y-2.6998
X2.5498Y-3.2998
X2.56Y-4.1454
X2.56Y-4.2439
X2.6498Y-2.6998
X2.6498Y-3.2998
X2.7004Y-4.2002
X2.7004Y-4.3002
X2.7004Y-4.4002
X2.7004Y-4.5002
X2.7004Y-4.6002
X2.7004Y-4.7002
X2.7004Y-4.8002
X2.7004Y-4.9002
X2.7004Y-5.0002
X2.7004Y-5.1002
X2.7498Y-2.6998
X2.7498Y-3.2998
X2.8126Y-5.2079
X2.8428Y-3.7504
X2.8428Y-3.8488
X2.8498Y-2.6998
X2.8498Y-3.2998
X2.911Y-5.2079
X2.9498Y-2.6998
X2.9498Y-3.2998
X2.9498Y-3.6996
X2.9498Y-3.9996
X3.0004Y-4.2002
X3.0004Y-4.3002
X3.0004Y-4.4002
X3.0004Y-4.5002
X3.0004Y-4.6002
X3.0004Y-4.7002
X3.0004Y-4.8002
X3.0004Y-4.9002
X3.0004Y-5.0002
X3.0004Y-5.1002
X3.0498Y-2.6998
X3.0498Y-3.2998
X3.0498Y-3.6996
X3.0498Y-3.9996
X3.1498Y-2.6998
X3.1498Y-3.2998
X3.1498Y-3.6996
X3.1498Y-3.9996
X3.2498Y-2.6998
X3.2498Y-3.2998
X3.2498Y-3.6996
X3.2498Y-3.9996
X3.2504Y-4.2002
X3.2504Y-4.3002
X3.2504Y-4.4002
X3.2504Y-4.5002
X3.2504Y-4.6002
X3.2504Y-4.7002
X3.2504Y-4.8002
X3.2504Y-4.9002
X3.2504Y-5.0002
X3.2504Y-5.1002
X3.3498Y-2.6998
X3.3498Y-3.2998
X3.3498Y-3.6996
X3.3498Y-3.9996
X3.4498Y-2.6998
X3.4498Y-3.2998
X3.4498Y-3.6996
X3.4498Y-3.9996
X3.4719Y-5.2064
X3.5498Y-2.6998
X3.5498Y-3.2998
X3.5498Y-3.6996
X3.5498Y-3.9996
X3.5504Y-4.2002
X3.5504Y-4.3002
X3.5504Y-4.4002
X3.5504Y-4.5002
X3.5504Y-4.6002
X3.5504Y-4.7002
X3.5504Y-4.8002
X3.5504Y-4.9002
X3.5504Y-5.0002
X3.5504Y-5.1002
X3.5703Y-5.2064
X3.6498Y-2.6998
X3.6498Y-3.2998
X3.7498Y-2.6998
X3.7498Y-3.2998
X3.7989Y-5.2063
X3.8002Y-3.8
X3.8002Y-3.9
X3.8002Y-4.0
X3.8002Y-4.1
X3.8002Y-4.2
X3.8002Y-4.3
X3.8002Y-4.4
X3.8002Y-4.5
X3.8002Y-4.6
X3.8002Y-4.7
X3.8002Y-4.8
X3.8002Y-4.9
X3.8002Y-5.0
X3.8002Y-5.1
X3.8498Y-2.6998
X3.8498Y-3.2998
X3.8973Y-5.2063
X3.9498Y-2.6998
X3.9498Y-3.2998
X4.0498Y-2.6998
X4.0498Y-3.2998
X4.1Y-3.525
X4.1Y-3.672
X4.2Y-2.7
X4.2Y-3.3
X4.2016Y-3.4
X4.25Y-2.9035
X4.25Y-3.0957
X4.2984Y-2.7
X4.2984Y-3.3
X4.3Y-3.4
X4.4Y-3.525
X4.4Y-3.672
X4.4002Y-3.8
X4.4002Y-3.9
X4.4002Y-4.0
X4.4002Y-4.1
X4.4002Y-4.2
X4.4002Y-4.3
X4.4002Y-4.4
X4.4002Y-4.5
X4.4002Y-4.6
X4.4002Y-4.7
X4.4002Y-4.8
X4.4002Y-4.9
X4.4002Y-5.0
X4.4002Y-5.1
T4
X2.0Y-2.8
X2.0Y-2.9
X2.0002Y-2.5
X2.1002Y-2.5
X2.2002Y-2.5
X2.3002Y-2.5
X2.4002Y-2.5
X2.5002Y-2.5
X2.6002Y-2.5
X2.7002Y-2.5
X2.8002Y-2.5
X2.9002Y-2.5
X3.0002Y-2.5
X3.1002Y-2.5
X3.5504Y-3.45
X3.6504Y-3.45
X3.7504Y-3.45
X3.8504Y-3.45
X4.25Y-2.45
X4.25Y-2.55
T0
M30
