%TF.GenerationSoftware,KiCad,Pcbnew,(6.0.4)*%
%TF.CreationDate,2022-04-30T14:30:54+02:00*%
%TF.ProjectId,TMS9918-2,544d5339-3931-4382-9d32-2e6b69636164,1.1*%
%TF.SameCoordinates,Original*%
%TF.FileFunction,Legend,Top*%
%TF.FilePolarity,Positive*%
%FSLAX46Y46*%
G04 Gerber Fmt 4.6, Leading zero omitted, Abs format (unit mm)*
G04 Created by KiCad (PCBNEW (6.0.4)) date 2022-04-30 14:30:54*
%MOMM*%
%LPD*%
G01*
G04 APERTURE LIST*
%ADD10C,0.150000*%
%ADD11C,0.120000*%
G04 APERTURE END LIST*
D10*
X55141904Y-62047380D02*
X55141904Y-61047380D01*
X55380000Y-61047380D01*
X55522857Y-61095000D01*
X55618095Y-61190238D01*
X55665714Y-61285476D01*
X55713333Y-61475952D01*
X55713333Y-61618809D01*
X55665714Y-61809285D01*
X55618095Y-61904523D01*
X55522857Y-61999761D01*
X55380000Y-62047380D01*
X55141904Y-62047380D01*
X56094285Y-61142619D02*
X56141904Y-61095000D01*
X56237142Y-61047380D01*
X56475238Y-61047380D01*
X56570476Y-61095000D01*
X56618095Y-61142619D01*
X56665714Y-61237857D01*
X56665714Y-61333095D01*
X56618095Y-61475952D01*
X56046666Y-62047380D01*
X56665714Y-62047380D01*
X70620000Y-60765000D02*
X71620000Y-60765000D01*
X71429523Y-62047380D02*
X71096190Y-61571190D01*
X70858095Y-62047380D02*
X70858095Y-61047380D01*
X71239047Y-61047380D01*
X71334285Y-61095000D01*
X71381904Y-61142619D01*
X71429523Y-61237857D01*
X71429523Y-61380714D01*
X71381904Y-61475952D01*
X71334285Y-61523571D01*
X71239047Y-61571190D01*
X70858095Y-61571190D01*
X95123095Y-64270000D02*
X95027857Y-64222380D01*
X94885000Y-64222380D01*
X94742142Y-64270000D01*
X94646904Y-64365238D01*
X94599285Y-64460476D01*
X94551666Y-64650952D01*
X94551666Y-64793809D01*
X94599285Y-64984285D01*
X94646904Y-65079523D01*
X94742142Y-65174761D01*
X94885000Y-65222380D01*
X94980238Y-65222380D01*
X95123095Y-65174761D01*
X95170714Y-65127142D01*
X95170714Y-64793809D01*
X94980238Y-64793809D01*
X95599285Y-65222380D02*
X95599285Y-64222380D01*
X96170714Y-65222380D01*
X96170714Y-64222380D01*
X96646904Y-65222380D02*
X96646904Y-64222380D01*
X96885000Y-64222380D01*
X97027857Y-64270000D01*
X97123095Y-64365238D01*
X97170714Y-64460476D01*
X97218333Y-64650952D01*
X97218333Y-64793809D01*
X97170714Y-64984285D01*
X97123095Y-65079523D01*
X97027857Y-65174761D01*
X96885000Y-65222380D01*
X96646904Y-65222380D01*
X52601904Y-62047380D02*
X52601904Y-61047380D01*
X52840000Y-61047380D01*
X52982857Y-61095000D01*
X53078095Y-61190238D01*
X53125714Y-61285476D01*
X53173333Y-61475952D01*
X53173333Y-61618809D01*
X53125714Y-61809285D01*
X53078095Y-61904523D01*
X52982857Y-61999761D01*
X52840000Y-62047380D01*
X52601904Y-62047380D01*
X54125714Y-62047380D02*
X53554285Y-62047380D01*
X53840000Y-62047380D02*
X53840000Y-61047380D01*
X53744761Y-61190238D01*
X53649523Y-61285476D01*
X53554285Y-61333095D01*
X45704285Y-74366428D02*
X46466190Y-74366428D01*
X46085238Y-74747380D02*
X46085238Y-73985476D01*
X47418571Y-73747380D02*
X46942380Y-73747380D01*
X46894761Y-74223571D01*
X46942380Y-74175952D01*
X47037619Y-74128333D01*
X47275714Y-74128333D01*
X47370952Y-74175952D01*
X47418571Y-74223571D01*
X47466190Y-74318809D01*
X47466190Y-74556904D01*
X47418571Y-74652142D01*
X47370952Y-74699761D01*
X47275714Y-74747380D01*
X47037619Y-74747380D01*
X46942380Y-74699761D01*
X46894761Y-74652142D01*
X47751904Y-73747380D02*
X48085238Y-74747380D01*
X48418571Y-73747380D01*
X78240000Y-60765000D02*
X79240000Y-60765000D01*
X79049523Y-62047380D02*
X78716190Y-61571190D01*
X78478095Y-62047380D02*
X78478095Y-61047380D01*
X78859047Y-61047380D01*
X78954285Y-61095000D01*
X79001904Y-61142619D01*
X79049523Y-61237857D01*
X79049523Y-61380714D01*
X79001904Y-61475952D01*
X78954285Y-61523571D01*
X78859047Y-61571190D01*
X78478095Y-61571190D01*
X57681904Y-62047380D02*
X57681904Y-61047380D01*
X57920000Y-61047380D01*
X58062857Y-61095000D01*
X58158095Y-61190238D01*
X58205714Y-61285476D01*
X58253333Y-61475952D01*
X58253333Y-61618809D01*
X58205714Y-61809285D01*
X58158095Y-61904523D01*
X58062857Y-61999761D01*
X57920000Y-62047380D01*
X57681904Y-62047380D01*
X58586666Y-61047380D02*
X59205714Y-61047380D01*
X58872380Y-61428333D01*
X59015238Y-61428333D01*
X59110476Y-61475952D01*
X59158095Y-61523571D01*
X59205714Y-61618809D01*
X59205714Y-61856904D01*
X59158095Y-61952142D01*
X59110476Y-61999761D01*
X59015238Y-62047380D01*
X58729523Y-62047380D01*
X58634285Y-61999761D01*
X58586666Y-61952142D01*
X50061904Y-62047380D02*
X50061904Y-61047380D01*
X50300000Y-61047380D01*
X50442857Y-61095000D01*
X50538095Y-61190238D01*
X50585714Y-61285476D01*
X50633333Y-61475952D01*
X50633333Y-61618809D01*
X50585714Y-61809285D01*
X50538095Y-61904523D01*
X50442857Y-61999761D01*
X50300000Y-62047380D01*
X50061904Y-62047380D01*
X51252380Y-61047380D02*
X51347619Y-61047380D01*
X51442857Y-61095000D01*
X51490476Y-61142619D01*
X51538095Y-61237857D01*
X51585714Y-61428333D01*
X51585714Y-61666428D01*
X51538095Y-61856904D01*
X51490476Y-61952142D01*
X51442857Y-61999761D01*
X51347619Y-62047380D01*
X51252380Y-62047380D01*
X51157142Y-61999761D01*
X51109523Y-61952142D01*
X51061904Y-61856904D01*
X51014285Y-61666428D01*
X51014285Y-61428333D01*
X51061904Y-61237857D01*
X51109523Y-61142619D01*
X51157142Y-61095000D01*
X51252380Y-61047380D01*
X94885000Y-61682380D02*
X95075476Y-61682380D01*
X95170714Y-61730000D01*
X95265952Y-61825238D01*
X95313571Y-62015714D01*
X95313571Y-62349047D01*
X95265952Y-62539523D01*
X95170714Y-62634761D01*
X95075476Y-62682380D01*
X94885000Y-62682380D01*
X94789761Y-62634761D01*
X94694523Y-62539523D01*
X94646904Y-62349047D01*
X94646904Y-62015714D01*
X94694523Y-61825238D01*
X94789761Y-61730000D01*
X94885000Y-61682380D01*
X95742142Y-61682380D02*
X95742142Y-62491904D01*
X95789761Y-62587142D01*
X95837380Y-62634761D01*
X95932619Y-62682380D01*
X96123095Y-62682380D01*
X96218333Y-62634761D01*
X96265952Y-62587142D01*
X96313571Y-62491904D01*
X96313571Y-61682380D01*
X96646904Y-61682380D02*
X97218333Y-61682380D01*
X96932619Y-62682380D02*
X96932619Y-61682380D01*
X60221904Y-62047380D02*
X60221904Y-61047380D01*
X60460000Y-61047380D01*
X60602857Y-61095000D01*
X60698095Y-61190238D01*
X60745714Y-61285476D01*
X60793333Y-61475952D01*
X60793333Y-61618809D01*
X60745714Y-61809285D01*
X60698095Y-61904523D01*
X60602857Y-61999761D01*
X60460000Y-62047380D01*
X60221904Y-62047380D01*
X61650476Y-61380714D02*
X61650476Y-62047380D01*
X61412380Y-60999761D02*
X61174285Y-61714047D01*
X61793333Y-61714047D01*
X73088571Y-60765000D02*
X74231428Y-60765000D01*
X73231428Y-61047380D02*
X73469523Y-62047380D01*
X73660000Y-61333095D01*
X73850476Y-62047380D01*
X74088571Y-61047380D01*
X46863095Y-70620000D02*
X46767857Y-70572380D01*
X46625000Y-70572380D01*
X46482142Y-70620000D01*
X46386904Y-70715238D01*
X46339285Y-70810476D01*
X46291666Y-71000952D01*
X46291666Y-71143809D01*
X46339285Y-71334285D01*
X46386904Y-71429523D01*
X46482142Y-71524761D01*
X46625000Y-71572380D01*
X46720238Y-71572380D01*
X46863095Y-71524761D01*
X46910714Y-71477142D01*
X46910714Y-71143809D01*
X46720238Y-71143809D01*
X47339285Y-71572380D02*
X47339285Y-70572380D01*
X47910714Y-71572380D01*
X47910714Y-70572380D01*
X48386904Y-71572380D02*
X48386904Y-70572380D01*
X48625000Y-70572380D01*
X48767857Y-70620000D01*
X48863095Y-70715238D01*
X48910714Y-70810476D01*
X48958333Y-71000952D01*
X48958333Y-71143809D01*
X48910714Y-71334285D01*
X48863095Y-71429523D01*
X48767857Y-71524761D01*
X48625000Y-71572380D01*
X48386904Y-71572380D01*
X65301904Y-62047380D02*
X65301904Y-61047380D01*
X65540000Y-61047380D01*
X65682857Y-61095000D01*
X65778095Y-61190238D01*
X65825714Y-61285476D01*
X65873333Y-61475952D01*
X65873333Y-61618809D01*
X65825714Y-61809285D01*
X65778095Y-61904523D01*
X65682857Y-61999761D01*
X65540000Y-62047380D01*
X65301904Y-62047380D01*
X66730476Y-61047380D02*
X66540000Y-61047380D01*
X66444761Y-61095000D01*
X66397142Y-61142619D01*
X66301904Y-61285476D01*
X66254285Y-61475952D01*
X66254285Y-61856904D01*
X66301904Y-61952142D01*
X66349523Y-61999761D01*
X66444761Y-62047380D01*
X66635238Y-62047380D01*
X66730476Y-61999761D01*
X66778095Y-61952142D01*
X66825714Y-61856904D01*
X66825714Y-61618809D01*
X66778095Y-61523571D01*
X66730476Y-61475952D01*
X66635238Y-61428333D01*
X66444761Y-61428333D01*
X66349523Y-61475952D01*
X66301904Y-61523571D01*
X66254285Y-61618809D01*
X75866666Y-62047380D02*
X75866666Y-61047380D01*
X76200000Y-61761666D01*
X76533333Y-61047380D01*
X76533333Y-62047380D01*
X67841904Y-62047380D02*
X67841904Y-61047380D01*
X68080000Y-61047380D01*
X68222857Y-61095000D01*
X68318095Y-61190238D01*
X68365714Y-61285476D01*
X68413333Y-61475952D01*
X68413333Y-61618809D01*
X68365714Y-61809285D01*
X68318095Y-61904523D01*
X68222857Y-61999761D01*
X68080000Y-62047380D01*
X67841904Y-62047380D01*
X68746666Y-61047380D02*
X69413333Y-61047380D01*
X68984761Y-62047380D01*
X62761904Y-62047380D02*
X62761904Y-61047380D01*
X63000000Y-61047380D01*
X63142857Y-61095000D01*
X63238095Y-61190238D01*
X63285714Y-61285476D01*
X63333333Y-61475952D01*
X63333333Y-61618809D01*
X63285714Y-61809285D01*
X63238095Y-61904523D01*
X63142857Y-61999761D01*
X63000000Y-62047380D01*
X62761904Y-62047380D01*
X64238095Y-61047380D02*
X63761904Y-61047380D01*
X63714285Y-61523571D01*
X63761904Y-61475952D01*
X63857142Y-61428333D01*
X64095238Y-61428333D01*
X64190476Y-61475952D01*
X64238095Y-61523571D01*
X64285714Y-61618809D01*
X64285714Y-61856904D01*
X64238095Y-61952142D01*
X64190476Y-61999761D01*
X64095238Y-62047380D01*
X63857142Y-62047380D01*
X63761904Y-61999761D01*
X63714285Y-61952142D01*
%TO.C,C8*%
X111593333Y-84177142D02*
X111545714Y-84224761D01*
X111402857Y-84272380D01*
X111307619Y-84272380D01*
X111164761Y-84224761D01*
X111069523Y-84129523D01*
X111021904Y-84034285D01*
X110974285Y-83843809D01*
X110974285Y-83700952D01*
X111021904Y-83510476D01*
X111069523Y-83415238D01*
X111164761Y-83320000D01*
X111307619Y-83272380D01*
X111402857Y-83272380D01*
X111545714Y-83320000D01*
X111593333Y-83367619D01*
X112164761Y-83700952D02*
X112069523Y-83653333D01*
X112021904Y-83605714D01*
X111974285Y-83510476D01*
X111974285Y-83462857D01*
X112021904Y-83367619D01*
X112069523Y-83320000D01*
X112164761Y-83272380D01*
X112355238Y-83272380D01*
X112450476Y-83320000D01*
X112498095Y-83367619D01*
X112545714Y-83462857D01*
X112545714Y-83510476D01*
X112498095Y-83605714D01*
X112450476Y-83653333D01*
X112355238Y-83700952D01*
X112164761Y-83700952D01*
X112069523Y-83748571D01*
X112021904Y-83796190D01*
X111974285Y-83891428D01*
X111974285Y-84081904D01*
X112021904Y-84177142D01*
X112069523Y-84224761D01*
X112164761Y-84272380D01*
X112355238Y-84272380D01*
X112450476Y-84224761D01*
X112498095Y-84177142D01*
X112545714Y-84081904D01*
X112545714Y-83891428D01*
X112498095Y-83796190D01*
X112450476Y-83748571D01*
X112355238Y-83700952D01*
%TO.C,J4*%
X87302380Y-87963333D02*
X88016666Y-87963333D01*
X88159523Y-88010952D01*
X88254761Y-88106190D01*
X88302380Y-88249047D01*
X88302380Y-88344285D01*
X87635714Y-87058571D02*
X88302380Y-87058571D01*
X87254761Y-87296666D02*
X87969047Y-87534761D01*
X87969047Y-86915714D01*
%TO.C,U2*%
X103383095Y-131322380D02*
X103383095Y-132131904D01*
X103430714Y-132227142D01*
X103478333Y-132274761D01*
X103573571Y-132322380D01*
X103764047Y-132322380D01*
X103859285Y-132274761D01*
X103906904Y-132227142D01*
X103954523Y-132131904D01*
X103954523Y-131322380D01*
X104383095Y-131417619D02*
X104430714Y-131370000D01*
X104525952Y-131322380D01*
X104764047Y-131322380D01*
X104859285Y-131370000D01*
X104906904Y-131417619D01*
X104954523Y-131512857D01*
X104954523Y-131608095D01*
X104906904Y-131750952D01*
X104335476Y-132322380D01*
X104954523Y-132322380D01*
%TO.C,U1*%
X51522380Y-79501904D02*
X52331904Y-79501904D01*
X52427142Y-79454285D01*
X52474761Y-79406666D01*
X52522380Y-79311428D01*
X52522380Y-79120952D01*
X52474761Y-79025714D01*
X52427142Y-78978095D01*
X52331904Y-78930476D01*
X51522380Y-78930476D01*
X52522380Y-77930476D02*
X52522380Y-78501904D01*
X52522380Y-78216190D02*
X51522380Y-78216190D01*
X51665238Y-78311428D01*
X51760476Y-78406666D01*
X51808095Y-78501904D01*
%TO.C,Y1*%
X111451190Y-76666190D02*
X111927380Y-76666190D01*
X110927380Y-76999523D02*
X111451190Y-76666190D01*
X110927380Y-76332857D01*
X111927380Y-75475714D02*
X111927380Y-76047142D01*
X111927380Y-75761428D02*
X110927380Y-75761428D01*
X111070238Y-75856666D01*
X111165476Y-75951904D01*
X111213095Y-76047142D01*
%TO.C,U6*%
X72047380Y-101081904D02*
X72856904Y-101081904D01*
X72952142Y-101034285D01*
X72999761Y-100986666D01*
X73047380Y-100891428D01*
X73047380Y-100700952D01*
X72999761Y-100605714D01*
X72952142Y-100558095D01*
X72856904Y-100510476D01*
X72047380Y-100510476D01*
X72047380Y-99605714D02*
X72047380Y-99796190D01*
X72095000Y-99891428D01*
X72142619Y-99939047D01*
X72285476Y-100034285D01*
X72475952Y-100081904D01*
X72856904Y-100081904D01*
X72952142Y-100034285D01*
X72999761Y-99986666D01*
X73047380Y-99891428D01*
X73047380Y-99700952D01*
X72999761Y-99605714D01*
X72952142Y-99558095D01*
X72856904Y-99510476D01*
X72618809Y-99510476D01*
X72523571Y-99558095D01*
X72475952Y-99605714D01*
X72428333Y-99700952D01*
X72428333Y-99891428D01*
X72475952Y-99986666D01*
X72523571Y-100034285D01*
X72618809Y-100081904D01*
%TO.C,C6*%
X71644798Y-92831195D02*
X71692417Y-92878814D01*
X71740036Y-93021671D01*
X71740036Y-93116909D01*
X71692417Y-93259767D01*
X71597179Y-93355005D01*
X71501941Y-93402624D01*
X71311465Y-93450243D01*
X71168608Y-93450243D01*
X70978132Y-93402624D01*
X70882894Y-93355005D01*
X70787656Y-93259767D01*
X70740036Y-93116909D01*
X70740036Y-93021671D01*
X70787656Y-92878814D01*
X70835275Y-92831195D01*
X70740036Y-91974052D02*
X70740036Y-92164529D01*
X70787656Y-92259767D01*
X70835275Y-92307386D01*
X70978132Y-92402624D01*
X71168608Y-92450243D01*
X71549560Y-92450243D01*
X71644798Y-92402624D01*
X71692417Y-92355005D01*
X71740036Y-92259767D01*
X71740036Y-92069290D01*
X71692417Y-91974052D01*
X71644798Y-91926433D01*
X71549560Y-91878814D01*
X71311465Y-91878814D01*
X71216227Y-91926433D01*
X71168608Y-91974052D01*
X71120989Y-92069290D01*
X71120989Y-92259767D01*
X71168608Y-92355005D01*
X71216227Y-92402624D01*
X71311465Y-92450243D01*
%TO.C,C7*%
X111593333Y-68937142D02*
X111545714Y-68984761D01*
X111402857Y-69032380D01*
X111307619Y-69032380D01*
X111164761Y-68984761D01*
X111069523Y-68889523D01*
X111021904Y-68794285D01*
X110974285Y-68603809D01*
X110974285Y-68460952D01*
X111021904Y-68270476D01*
X111069523Y-68175238D01*
X111164761Y-68080000D01*
X111307619Y-68032380D01*
X111402857Y-68032380D01*
X111545714Y-68080000D01*
X111593333Y-68127619D01*
X111926666Y-68032380D02*
X112593333Y-68032380D01*
X112164761Y-69032380D01*
%TO.C,C2*%
X97574190Y-134646692D02*
X97526571Y-134694311D01*
X97383714Y-134741930D01*
X97288476Y-134741930D01*
X97145618Y-134694311D01*
X97050380Y-134599073D01*
X97002761Y-134503835D01*
X96955142Y-134313359D01*
X96955142Y-134170502D01*
X97002761Y-133980026D01*
X97050380Y-133884788D01*
X97145618Y-133789550D01*
X97288476Y-133741930D01*
X97383714Y-133741930D01*
X97526571Y-133789550D01*
X97574190Y-133837169D01*
X97955142Y-133837169D02*
X98002761Y-133789550D01*
X98097999Y-133741930D01*
X98336095Y-133741930D01*
X98431333Y-133789550D01*
X98478952Y-133837169D01*
X98526571Y-133932407D01*
X98526571Y-134027645D01*
X98478952Y-134170502D01*
X97907523Y-134741930D01*
X98526571Y-134741930D01*
%TO.C,C4*%
X72523251Y-134688694D02*
X72475632Y-134736313D01*
X72332775Y-134783932D01*
X72237537Y-134783932D01*
X72094679Y-134736313D01*
X71999441Y-134641075D01*
X71951822Y-134545837D01*
X71904203Y-134355361D01*
X71904203Y-134212504D01*
X71951822Y-134022028D01*
X71999441Y-133926790D01*
X72094679Y-133831552D01*
X72237537Y-133783932D01*
X72332775Y-133783932D01*
X72475632Y-133831552D01*
X72523251Y-133879171D01*
X73380394Y-134117266D02*
X73380394Y-134783932D01*
X73142298Y-133736313D02*
X72904203Y-134450599D01*
X73523251Y-134450599D01*
%TO.C,J2*%
X110861666Y-62947380D02*
X110861666Y-63661666D01*
X110814047Y-63804523D01*
X110718809Y-63899761D01*
X110575952Y-63947380D01*
X110480714Y-63947380D01*
X111290238Y-63042619D02*
X111337857Y-62995000D01*
X111433095Y-62947380D01*
X111671190Y-62947380D01*
X111766428Y-62995000D01*
X111814047Y-63042619D01*
X111861666Y-63137857D01*
X111861666Y-63233095D01*
X111814047Y-63375952D01*
X111242619Y-63947380D01*
X111861666Y-63947380D01*
%TO.C,U5*%
X85608095Y-103807380D02*
X85608095Y-104616904D01*
X85655714Y-104712142D01*
X85703333Y-104759761D01*
X85798571Y-104807380D01*
X85989047Y-104807380D01*
X86084285Y-104759761D01*
X86131904Y-104712142D01*
X86179523Y-104616904D01*
X86179523Y-103807380D01*
X87131904Y-103807380D02*
X86655714Y-103807380D01*
X86608095Y-104283571D01*
X86655714Y-104235952D01*
X86750952Y-104188333D01*
X86989047Y-104188333D01*
X87084285Y-104235952D01*
X87131904Y-104283571D01*
X87179523Y-104378809D01*
X87179523Y-104616904D01*
X87131904Y-104712142D01*
X87084285Y-104759761D01*
X86989047Y-104807380D01*
X86750952Y-104807380D01*
X86655714Y-104759761D01*
X86608095Y-104712142D01*
%TO.C,C3*%
X65127142Y-110656666D02*
X65174761Y-110704285D01*
X65222380Y-110847142D01*
X65222380Y-110942380D01*
X65174761Y-111085238D01*
X65079523Y-111180476D01*
X64984285Y-111228095D01*
X64793809Y-111275714D01*
X64650952Y-111275714D01*
X64460476Y-111228095D01*
X64365238Y-111180476D01*
X64270000Y-111085238D01*
X64222380Y-110942380D01*
X64222380Y-110847142D01*
X64270000Y-110704285D01*
X64317619Y-110656666D01*
X64222380Y-110323333D02*
X64222380Y-109704285D01*
X64603333Y-110037619D01*
X64603333Y-109894761D01*
X64650952Y-109799523D01*
X64698571Y-109751904D01*
X64793809Y-109704285D01*
X65031904Y-109704285D01*
X65127142Y-109751904D01*
X65174761Y-109799523D01*
X65222380Y-109894761D01*
X65222380Y-110180476D01*
X65174761Y-110275714D01*
X65127142Y-110323333D01*
%TO.C,Q1*%
X95789761Y-90717619D02*
X95694523Y-90670000D01*
X95599285Y-90574761D01*
X95456428Y-90431904D01*
X95361190Y-90384285D01*
X95265952Y-90384285D01*
X95313571Y-90622380D02*
X95218333Y-90574761D01*
X95123095Y-90479523D01*
X95075476Y-90289047D01*
X95075476Y-89955714D01*
X95123095Y-89765238D01*
X95218333Y-89670000D01*
X95313571Y-89622380D01*
X95504047Y-89622380D01*
X95599285Y-89670000D01*
X95694523Y-89765238D01*
X95742142Y-89955714D01*
X95742142Y-90289047D01*
X95694523Y-90479523D01*
X95599285Y-90574761D01*
X95504047Y-90622380D01*
X95313571Y-90622380D01*
X96694523Y-90622380D02*
X96123095Y-90622380D01*
X96408809Y-90622380D02*
X96408809Y-89622380D01*
X96313571Y-89765238D01*
X96218333Y-89860476D01*
X96123095Y-89908095D01*
%TO.C,R1*%
X114133333Y-93721926D02*
X113800000Y-93245736D01*
X113561904Y-93721926D02*
X113561904Y-92721926D01*
X113942857Y-92721926D01*
X114038095Y-92769546D01*
X114085714Y-92817165D01*
X114133333Y-92912403D01*
X114133333Y-93055260D01*
X114085714Y-93150498D01*
X114038095Y-93198117D01*
X113942857Y-93245736D01*
X113561904Y-93245736D01*
X115085714Y-93721926D02*
X114514285Y-93721926D01*
X114800000Y-93721926D02*
X114800000Y-92721926D01*
X114704761Y-92864784D01*
X114609523Y-92960022D01*
X114514285Y-93007641D01*
%TO.C,R3*%
X114133333Y-89987380D02*
X113800000Y-89511190D01*
X113561904Y-89987380D02*
X113561904Y-88987380D01*
X113942857Y-88987380D01*
X114038095Y-89035000D01*
X114085714Y-89082619D01*
X114133333Y-89177857D01*
X114133333Y-89320714D01*
X114085714Y-89415952D01*
X114038095Y-89463571D01*
X113942857Y-89511190D01*
X113561904Y-89511190D01*
X114466666Y-88987380D02*
X115085714Y-88987380D01*
X114752380Y-89368333D01*
X114895238Y-89368333D01*
X114990476Y-89415952D01*
X115038095Y-89463571D01*
X115085714Y-89558809D01*
X115085714Y-89796904D01*
X115038095Y-89892142D01*
X114990476Y-89939761D01*
X114895238Y-89987380D01*
X114609523Y-89987380D01*
X114514285Y-89939761D01*
X114466666Y-89892142D01*
%TO.C,C1*%
X111593333Y-86717142D02*
X111545714Y-86764761D01*
X111402857Y-86812380D01*
X111307619Y-86812380D01*
X111164761Y-86764761D01*
X111069523Y-86669523D01*
X111021904Y-86574285D01*
X110974285Y-86383809D01*
X110974285Y-86240952D01*
X111021904Y-86050476D01*
X111069523Y-85955238D01*
X111164761Y-85860000D01*
X111307619Y-85812380D01*
X111402857Y-85812380D01*
X111545714Y-85860000D01*
X111593333Y-85907619D01*
X112545714Y-86812380D02*
X111974285Y-86812380D01*
X112260000Y-86812380D02*
X112260000Y-85812380D01*
X112164761Y-85955238D01*
X112069523Y-86050476D01*
X111974285Y-86098095D01*
%TO.C,C5*%
X89269155Y-134650276D02*
X89221536Y-134697895D01*
X89078679Y-134745514D01*
X88983441Y-134745514D01*
X88840583Y-134697895D01*
X88745345Y-134602657D01*
X88697726Y-134507419D01*
X88650107Y-134316943D01*
X88650107Y-134174086D01*
X88697726Y-133983610D01*
X88745345Y-133888372D01*
X88840583Y-133793134D01*
X88983441Y-133745514D01*
X89078679Y-133745514D01*
X89221536Y-133793134D01*
X89269155Y-133840753D01*
X90173917Y-133745514D02*
X89697726Y-133745514D01*
X89650107Y-134221705D01*
X89697726Y-134174086D01*
X89792964Y-134126467D01*
X90031060Y-134126467D01*
X90126298Y-134174086D01*
X90173917Y-134221705D01*
X90221536Y-134316943D01*
X90221536Y-134555038D01*
X90173917Y-134650276D01*
X90126298Y-134697895D01*
X90031060Y-134745514D01*
X89792964Y-134745514D01*
X89697726Y-134697895D01*
X89650107Y-134650276D01*
%TO.C,U4*%
X71638095Y-103807380D02*
X71638095Y-104616904D01*
X71685714Y-104712142D01*
X71733333Y-104759761D01*
X71828571Y-104807380D01*
X72019047Y-104807380D01*
X72114285Y-104759761D01*
X72161904Y-104712142D01*
X72209523Y-104616904D01*
X72209523Y-103807380D01*
X73114285Y-104140714D02*
X73114285Y-104807380D01*
X72876190Y-103759761D02*
X72638095Y-104474047D01*
X73257142Y-104474047D01*
%TO.C,U3*%
X57668095Y-103807380D02*
X57668095Y-104616904D01*
X57715714Y-104712142D01*
X57763333Y-104759761D01*
X57858571Y-104807380D01*
X58049047Y-104807380D01*
X58144285Y-104759761D01*
X58191904Y-104712142D01*
X58239523Y-104616904D01*
X58239523Y-103807380D01*
X58620476Y-103807380D02*
X59239523Y-103807380D01*
X58906190Y-104188333D01*
X59049047Y-104188333D01*
X59144285Y-104235952D01*
X59191904Y-104283571D01*
X59239523Y-104378809D01*
X59239523Y-104616904D01*
X59191904Y-104712142D01*
X59144285Y-104759761D01*
X59049047Y-104807380D01*
X58763333Y-104807380D01*
X58668095Y-104759761D01*
X58620476Y-104712142D01*
D11*
%TO.C,C8*%
X107301000Y-84740000D02*
X108559000Y-84740000D01*
X107301000Y-82900000D02*
X108559000Y-82900000D01*
%TO.C,J4*%
X99130000Y-88960000D02*
X99130000Y-86300000D01*
X90180000Y-88960000D02*
X88850000Y-88960000D01*
X88850000Y-88960000D02*
X88850000Y-87630000D01*
X91450000Y-88960000D02*
X99130000Y-88960000D01*
X91450000Y-86300000D02*
X99130000Y-86300000D01*
X91450000Y-88960000D02*
X91450000Y-86300000D01*
%TO.C,U2*%
X105145000Y-130870000D02*
X110605000Y-130870000D01*
X110605000Y-95190000D02*
X97685000Y-95190000D01*
X110605000Y-130870000D02*
X110605000Y-95190000D01*
X97685000Y-95190000D02*
X97685000Y-130870000D01*
X97685000Y-130870000D02*
X103145000Y-130870000D01*
X105145000Y-130870000D02*
G75*
G03*
X103145000Y-130870000I-1000000J0D01*
G01*
%TO.C,U1*%
X53215000Y-67245000D02*
X53215000Y-85145000D01*
X104195000Y-82655000D02*
X104195000Y-77195000D01*
X104195000Y-69735000D02*
X53275000Y-69735000D01*
X104195000Y-75195000D02*
X104195000Y-69735000D01*
X104255000Y-85145000D02*
X104255000Y-67245000D01*
X53275000Y-69735000D02*
X53275000Y-82655000D01*
X104255000Y-67245000D02*
X53215000Y-67245000D01*
X53215000Y-85145000D02*
X104255000Y-85145000D01*
X53275000Y-82655000D02*
X104195000Y-82655000D01*
X104195000Y-75195000D02*
G75*
G03*
X104195000Y-77195000I0J-1000000D01*
G01*
%TO.C,Y1*%
X105425000Y-72990000D02*
X105425000Y-79390000D01*
X110475000Y-72990000D02*
X110475000Y-79390000D01*
X110475000Y-72990000D02*
G75*
G03*
X105425000Y-72990000I-2525000J0D01*
G01*
X105425000Y-79390000D02*
G75*
G03*
X110475000Y-79390000I2525000J0D01*
G01*
%TO.C,U6*%
X73535000Y-102920000D02*
X91555000Y-102920000D01*
X91555000Y-102920000D02*
X91555000Y-92640000D01*
X73595000Y-98780000D02*
X73595000Y-100430000D01*
X91555000Y-92640000D02*
X73535000Y-92640000D01*
X73535000Y-92640000D02*
X73535000Y-102920000D01*
X91495000Y-95130000D02*
X73595000Y-95130000D01*
X73595000Y-95130000D02*
X73595000Y-96780000D01*
X91495000Y-100430000D02*
X91495000Y-95130000D01*
X73595000Y-100430000D02*
X91495000Y-100430000D01*
X73595000Y-98780000D02*
G75*
G03*
X73595000Y-96780000I0J1000000D01*
G01*
%TO.C,C6*%
X71287656Y-95880986D02*
X71287656Y-97138986D01*
X73127656Y-95880986D02*
X73127656Y-97138986D01*
%TO.C,C7*%
X107301000Y-67660000D02*
X108559000Y-67660000D01*
X107301000Y-69500000D02*
X108559000Y-69500000D01*
%TO.C,C2*%
X98369857Y-133159550D02*
X97111857Y-133159550D01*
X98369857Y-131319550D02*
X97111857Y-131319550D01*
%TO.C,C4*%
X73318918Y-131361552D02*
X72060918Y-131361552D01*
X73318918Y-133201552D02*
X72060918Y-133201552D01*
%TO.C,J2*%
X106907071Y-62610000D02*
X106510000Y-62610000D01*
X103850000Y-64970000D02*
X97850000Y-64970000D01*
X106840000Y-64390000D02*
X106510000Y-64390000D01*
X103850000Y-64850000D02*
X97850000Y-64850000D01*
X97850000Y-61850000D02*
X103850000Y-61850000D01*
X109220000Y-64770000D02*
X109220000Y-66040000D01*
X97850000Y-62610000D02*
X97850000Y-61850000D01*
X103850000Y-64490000D02*
X97850000Y-64490000D01*
X97850000Y-65150000D02*
X97850000Y-64390000D01*
X103850000Y-64730000D02*
X97850000Y-64730000D01*
X103850000Y-64610000D02*
X97850000Y-64610000D01*
X109220000Y-66040000D02*
X107950000Y-66040000D01*
X106510000Y-63500000D02*
X103850000Y-63500000D01*
X97850000Y-64390000D02*
X103850000Y-64390000D01*
X103850000Y-65090000D02*
X97850000Y-65090000D01*
X106510000Y-66100000D02*
X106510000Y-60900000D01*
X103850000Y-60900000D02*
X103850000Y-66100000D01*
X103850000Y-65150000D02*
X97850000Y-65150000D01*
X103850000Y-66100000D02*
X106510000Y-66100000D01*
X106907071Y-61850000D02*
X106510000Y-61850000D01*
X103850000Y-62610000D02*
X97850000Y-62610000D01*
X106840000Y-65150000D02*
X106510000Y-65150000D01*
X106510000Y-60900000D02*
X103850000Y-60900000D01*
%TO.C,U5*%
X81230000Y-105295000D02*
X81230000Y-130935000D01*
X91510000Y-130935000D02*
X91510000Y-105295000D01*
X85370000Y-105355000D02*
X83720000Y-105355000D01*
X81230000Y-130935000D02*
X91510000Y-130935000D01*
X91510000Y-105295000D02*
X81230000Y-105295000D01*
X89020000Y-130875000D02*
X89020000Y-105355000D01*
X83720000Y-105355000D02*
X83720000Y-130875000D01*
X83720000Y-130875000D02*
X89020000Y-130875000D01*
X89020000Y-105355000D02*
X87370000Y-105355000D01*
X85370000Y-105355000D02*
G75*
G03*
X87370000Y-105355000I1000000J0D01*
G01*
%TO.C,C3*%
X65943254Y-107173320D02*
X65943254Y-105915320D01*
X64103254Y-107173320D02*
X64103254Y-105915320D01*
%TO.C,Q1*%
X101495000Y-90225000D02*
X97895000Y-90225000D01*
X97856522Y-90236522D02*
G75*
G03*
X99695000Y-94675000I1838478J-1838478D01*
G01*
X99695000Y-94675001D02*
G75*
G03*
X101533478Y-90236522I0J2600001D01*
G01*
%TO.C,R1*%
X104680000Y-94309546D02*
X104680000Y-94639546D01*
X104680000Y-91899546D02*
X111220000Y-91899546D01*
X111220000Y-94639546D02*
X111220000Y-94309546D01*
X104680000Y-92229546D02*
X104680000Y-91899546D01*
X104680000Y-94639546D02*
X111220000Y-94639546D01*
X111220000Y-91899546D02*
X111220000Y-92229546D01*
%TO.C,R3*%
X111220000Y-88165000D02*
X111220000Y-88495000D01*
X111220000Y-90905000D02*
X111220000Y-90575000D01*
X104680000Y-90575000D02*
X104680000Y-90905000D01*
X104680000Y-90905000D02*
X111220000Y-90905000D01*
X104680000Y-88495000D02*
X104680000Y-88165000D01*
X104680000Y-88165000D02*
X111220000Y-88165000D01*
%TO.C,C1*%
X107341000Y-87280000D02*
X108599000Y-87280000D01*
X107341000Y-85440000D02*
X108599000Y-85440000D01*
%TO.C,C5*%
X90064822Y-133163134D02*
X88806822Y-133163134D01*
X90064822Y-131323134D02*
X88806822Y-131323134D01*
%TO.C,U4*%
X69750000Y-105355000D02*
X69750000Y-130875000D01*
X77540000Y-105295000D02*
X67260000Y-105295000D01*
X67260000Y-130935000D02*
X77540000Y-130935000D01*
X75050000Y-130875000D02*
X75050000Y-105355000D01*
X75050000Y-105355000D02*
X73400000Y-105355000D01*
X69750000Y-130875000D02*
X75050000Y-130875000D01*
X77540000Y-130935000D02*
X77540000Y-105295000D01*
X67260000Y-105295000D02*
X67260000Y-130935000D01*
X71400000Y-105355000D02*
X69750000Y-105355000D01*
X71400000Y-105355000D02*
G75*
G03*
X73400000Y-105355000I1000000J0D01*
G01*
%TO.C,U3*%
X55780000Y-105355000D02*
X55780000Y-130875000D01*
X57430000Y-105355000D02*
X55780000Y-105355000D01*
X63570000Y-130935000D02*
X63570000Y-105295000D01*
X61080000Y-105355000D02*
X59430000Y-105355000D01*
X53290000Y-130935000D02*
X63570000Y-130935000D01*
X55780000Y-130875000D02*
X61080000Y-130875000D01*
X53290000Y-105295000D02*
X53290000Y-130935000D01*
X61080000Y-130875000D02*
X61080000Y-105355000D01*
X63570000Y-105295000D02*
X53290000Y-105295000D01*
X57430000Y-105355000D02*
G75*
G03*
X59430000Y-105355000I1000000J0D01*
G01*
%TD*%
M02*
