%TF.GenerationSoftware,KiCad,Pcbnew,(6.0.4)*%
%TF.CreationDate,2022-06-25T19:27:49+02:00*%
%TF.ProjectId,TMS9918,544d5339-3931-4382-9e6b-696361645f70,1.2*%
%TF.SameCoordinates,Original*%
%TF.FileFunction,Soldermask,Bot*%
%TF.FilePolarity,Negative*%
%FSLAX46Y46*%
G04 Gerber Fmt 4.6, Leading zero omitted, Abs format (unit mm)*
G04 Created by KiCad (PCBNEW (6.0.4)) date 2022-06-25 19:27:49*
%MOMM*%
%LPD*%
G01*
G04 APERTURE LIST*
%ADD10C,1.600000*%
%ADD11R,1.700000X1.700000*%
%ADD12O,1.700000X1.700000*%
%ADD13R,1.600000X1.600000*%
%ADD14O,1.600000X1.600000*%
%ADD15C,1.500000*%
%ADD16R,1.300000X1.300000*%
%ADD17C,1.300000*%
G04 APERTURE END LIST*
D10*
%TO.C,C8*%
X106680000Y-83820000D03*
X109180000Y-83820000D03*
%TD*%
D11*
%TO.C,J4*%
X90180000Y-87630000D03*
D12*
X92720000Y-87630000D03*
X95260000Y-87630000D03*
X97800000Y-87630000D03*
%TD*%
D13*
%TO.C,U2*%
X111765000Y-129540000D03*
D14*
X111765000Y-127000000D03*
X111765000Y-124460000D03*
X111765000Y-121920000D03*
X111765000Y-119380000D03*
X111765000Y-116840000D03*
X111765000Y-114300000D03*
X111765000Y-111760000D03*
X111765000Y-109220000D03*
X111765000Y-106680000D03*
X111765000Y-104140000D03*
X111765000Y-101600000D03*
X111765000Y-99060000D03*
X111765000Y-96520000D03*
X96525000Y-96520000D03*
X96525000Y-99060000D03*
X96525000Y-101600000D03*
X96525000Y-104140000D03*
X96525000Y-106680000D03*
X96525000Y-109220000D03*
X96525000Y-111760000D03*
X96525000Y-114300000D03*
X96525000Y-116840000D03*
X96525000Y-119380000D03*
X96525000Y-121920000D03*
X96525000Y-124460000D03*
X96525000Y-127000000D03*
X96525000Y-129540000D03*
%TD*%
D13*
%TO.C,U1*%
X102865000Y-68575000D03*
D14*
X100325000Y-68575000D03*
X97785000Y-68575000D03*
X95245000Y-68575000D03*
X92705000Y-68575000D03*
X90165000Y-68575000D03*
X87625000Y-68575000D03*
X85085000Y-68575000D03*
X82545000Y-68575000D03*
X80005000Y-68575000D03*
X77465000Y-68575000D03*
X74925000Y-68575000D03*
X72385000Y-68575000D03*
X69845000Y-68575000D03*
X67305000Y-68575000D03*
X64765000Y-68575000D03*
X62225000Y-68575000D03*
X59685000Y-68575000D03*
X57145000Y-68575000D03*
X54605000Y-68575000D03*
X54605000Y-83815000D03*
X57145000Y-83815000D03*
X59685000Y-83815000D03*
X62225000Y-83815000D03*
X64765000Y-83815000D03*
X67305000Y-83815000D03*
X69845000Y-83815000D03*
X72385000Y-83815000D03*
X74925000Y-83815000D03*
X77465000Y-83815000D03*
X80005000Y-83815000D03*
X82545000Y-83815000D03*
X85085000Y-83815000D03*
X87625000Y-83815000D03*
X90165000Y-83815000D03*
X92705000Y-83815000D03*
X95245000Y-83815000D03*
X97785000Y-83815000D03*
X100325000Y-83815000D03*
X102865000Y-83815000D03*
%TD*%
D15*
%TO.C,Y1*%
X107950000Y-73750000D03*
X107950000Y-78630000D03*
%TD*%
D13*
%TO.C,U6*%
X74925000Y-101590000D03*
D14*
X77465000Y-101590000D03*
X80005000Y-101590000D03*
X82545000Y-101590000D03*
X85085000Y-101590000D03*
X87625000Y-101590000D03*
X90165000Y-101590000D03*
X90165000Y-93970000D03*
X87625000Y-93970000D03*
X85085000Y-93970000D03*
X82545000Y-93970000D03*
X80005000Y-93970000D03*
X77465000Y-93970000D03*
X74925000Y-93970000D03*
%TD*%
D10*
%TO.C,C6*%
X72207656Y-95259986D03*
X72207656Y-97759986D03*
%TD*%
%TO.C,C7*%
X106680000Y-68580000D03*
X109180000Y-68580000D03*
%TD*%
%TO.C,C2*%
X98990857Y-132239550D03*
X96490857Y-132239550D03*
%TD*%
%TO.C,C4*%
X73939918Y-132281552D03*
X71439918Y-132281552D03*
%TD*%
D11*
%TO.C,J2*%
X107950000Y-64770000D03*
D12*
X107950000Y-62230000D03*
%TD*%
D13*
%TO.C,U5*%
X82560000Y-106685000D03*
D14*
X82560000Y-109225000D03*
X82560000Y-111765000D03*
X82560000Y-114305000D03*
X82560000Y-116845000D03*
X82560000Y-119385000D03*
X82560000Y-121925000D03*
X82560000Y-124465000D03*
X82560000Y-127005000D03*
X82560000Y-129545000D03*
X90180000Y-129545000D03*
X90180000Y-127005000D03*
X90180000Y-124465000D03*
X90180000Y-121925000D03*
X90180000Y-119385000D03*
X90180000Y-116845000D03*
X90180000Y-114305000D03*
X90180000Y-111765000D03*
X90180000Y-109225000D03*
X90180000Y-106685000D03*
%TD*%
D10*
%TO.C,C3*%
X65023254Y-107794320D03*
X65023254Y-105294320D03*
%TD*%
D16*
%TO.C,Q1*%
X100965000Y-92075000D03*
D17*
X99695000Y-93345000D03*
X98425000Y-92075000D03*
%TD*%
D10*
%TO.C,R1*%
X104140000Y-93269546D03*
D14*
X111760000Y-93269546D03*
%TD*%
D10*
%TO.C,R3*%
X104140000Y-89535000D03*
D14*
X111760000Y-89535000D03*
%TD*%
D10*
%TO.C,C1*%
X106720000Y-86360000D03*
X109220000Y-86360000D03*
%TD*%
%TO.C,C5*%
X90685822Y-132243134D03*
X88185822Y-132243134D03*
%TD*%
D13*
%TO.C,U4*%
X68590000Y-106685000D03*
D14*
X68590000Y-109225000D03*
X68590000Y-111765000D03*
X68590000Y-114305000D03*
X68590000Y-116845000D03*
X68590000Y-119385000D03*
X68590000Y-121925000D03*
X68590000Y-124465000D03*
X68590000Y-127005000D03*
X68590000Y-129545000D03*
X76210000Y-129545000D03*
X76210000Y-127005000D03*
X76210000Y-124465000D03*
X76210000Y-121925000D03*
X76210000Y-119385000D03*
X76210000Y-116845000D03*
X76210000Y-114305000D03*
X76210000Y-111765000D03*
X76210000Y-109225000D03*
X76210000Y-106685000D03*
%TD*%
D13*
%TO.C,U3*%
X54620000Y-106685000D03*
D14*
X54620000Y-109225000D03*
X54620000Y-111765000D03*
X54620000Y-114305000D03*
X54620000Y-116845000D03*
X54620000Y-119385000D03*
X54620000Y-121925000D03*
X54620000Y-124465000D03*
X54620000Y-127005000D03*
X54620000Y-129545000D03*
X62240000Y-129545000D03*
X62240000Y-127005000D03*
X62240000Y-124465000D03*
X62240000Y-121925000D03*
X62240000Y-119385000D03*
X62240000Y-116845000D03*
X62240000Y-114305000D03*
X62240000Y-111765000D03*
X62240000Y-109225000D03*
X62240000Y-106685000D03*
%TD*%
D11*
%TO.C,J3*%
X50800000Y-71120000D03*
D12*
X50800000Y-73660000D03*
%TD*%
D11*
%TO.C,J1*%
X50805000Y-63500000D03*
D12*
X53345000Y-63500000D03*
X55885000Y-63500000D03*
X58425000Y-63500000D03*
X60965000Y-63500000D03*
X63505000Y-63500000D03*
X66045000Y-63500000D03*
X68585000Y-63500000D03*
X71125000Y-63500000D03*
X73665000Y-63500000D03*
X76205000Y-63500000D03*
X78745000Y-63500000D03*
%TD*%
M02*
